<svg id="Layer_1" data-name="Layer 1" xmlns="http://www.w3.org/2000/svg" viewBox="0 0 77.36 38.17"><defs><style>.cls-1,.cls-2{fill:none;stroke-miterlimit:10;}.cls-1{stroke:#fff;stroke-width:3px;}.cls-2{stroke:#d2e7e9;stroke-width:5px;}</style></defs><path class="cls-1" d="M435.59-53.66" transform="translate(-391.75 -16.83)"/><path class="cls-2" d="M392.82,49.87c7.25,3.45,12.09,2.76,16.92-2.42S423.9,27.77,423.9,27.77c9-12.09,20-8.64,23.83-5.18s-.11,2.79-3.8,5.18C435.51,33.22,437.71,51,453.6,52c9-.06,13.12-2.82,13.12-2.82" transform="translate(-391.75 -16.83)"/><path class="cls-1" d="M394.37,51.37c7.25,3.45,12.08,2.76,16.92-2.42s14.16-19.69,14.16-19.69c9-12.08,20-8.63,23.83-5.18s-.11,2.8-3.8,5.18c-8.43,5.45-6.22,23.27,9.67,24.24,9-.06,13.12-2.82,13.12-2.82" transform="translate(-391.75 -16.83)"/></svg>